<mxfile host="app.diagrams.net" modified="2024-02-16T06:40:03.353Z" agent="Mozilla/5.0 (Windows NT 10.0; Win64; x64) AppleWebKit/537.36 (KHTML, like Gecko) Chrome/121.0.0.0 Safari/537.36" etag="Hsj681WEYGluO_cHL_-g" version="23.1.5" type="device">
  <diagram name="Page-1" id="qSftNbPRRZXmLrSmaMVI">
    <mxGraphModel dx="2736" dy="1027" grid="1" gridSize="10" guides="1" tooltips="1" connect="1" arrows="1" fold="1" page="1" pageScale="1" pageWidth="827" pageHeight="1169" math="0" shadow="0">
      <root>
        <mxCell id="0" />
        <mxCell id="1" parent="0" />
        <mxCell id="QmorPVJmmJFfb_BFFMC7-23" style="edgeStyle=orthogonalEdgeStyle;rounded=0;orthogonalLoop=1;jettySize=auto;html=1;" edge="1" parent="1" source="QmorPVJmmJFfb_BFFMC7-1" target="QmorPVJmmJFfb_BFFMC7-9">
          <mxGeometry relative="1" as="geometry" />
        </mxCell>
        <mxCell id="QmorPVJmmJFfb_BFFMC7-1" value="main" style="rounded=0;whiteSpace=wrap;html=1;fontSize=50;fontStyle=1" vertex="1" parent="1">
          <mxGeometry x="350" y="260" width="350" height="140" as="geometry" />
        </mxCell>
        <mxCell id="QmorPVJmmJFfb_BFFMC7-2" value="" style="rounded=0;whiteSpace=wrap;html=1;fillColor=#d5e8d4;strokeColor=#82b366;opacity=60;" vertex="1" parent="1">
          <mxGeometry x="-30" y="630" width="1050" height="490" as="geometry" />
        </mxCell>
        <mxCell id="QmorPVJmmJFfb_BFFMC7-3" value="Turing_machine_Builder_Component" style="text;html=1;align=center;verticalAlign=middle;whiteSpace=wrap;rounded=0;fontSize=18;fontStyle=1;fillColor=#d5e8d4;strokeColor=#82b366;" vertex="1" parent="1">
          <mxGeometry x="-370" y="740" width="320" height="30" as="geometry" />
        </mxCell>
        <mxCell id="QmorPVJmmJFfb_BFFMC7-17" style="edgeStyle=orthogonalEdgeStyle;rounded=0;orthogonalLoop=1;jettySize=auto;html=1;" edge="1" parent="1" source="QmorPVJmmJFfb_BFFMC7-9" target="QmorPVJmmJFfb_BFFMC7-13">
          <mxGeometry relative="1" as="geometry" />
        </mxCell>
        <mxCell id="QmorPVJmmJFfb_BFFMC7-22" style="edgeStyle=orthogonalEdgeStyle;rounded=0;orthogonalLoop=1;jettySize=auto;html=1;" edge="1" parent="1" source="QmorPVJmmJFfb_BFFMC7-9" target="QmorPVJmmJFfb_BFFMC7-18">
          <mxGeometry relative="1" as="geometry" />
        </mxCell>
        <mxCell id="QmorPVJmmJFfb_BFFMC7-9" value="Turing_machine_controller" style="swimlane;fontStyle=1;align=center;verticalAlign=middle;childLayout=stackLayout;horizontal=1;startSize=29;horizontalStack=0;resizeParent=1;resizeParentMax=0;resizeLast=0;collapsible=0;marginBottom=0;html=1;whiteSpace=wrap;" vertex="1" parent="1">
          <mxGeometry x="280" y="652" width="470" height="118" as="geometry" />
        </mxCell>
        <mxCell id="QmorPVJmmJFfb_BFFMC7-10" value="-field:&amp;nbsp; &amp;nbsp; Dictionary&amp;lt;string ID, Turing_machine&amp;gt; turing_machines" style="text;html=1;strokeColor=none;fillColor=none;align=left;verticalAlign=middle;spacingLeft=4;spacingRight=4;overflow=hidden;rotatable=0;points=[[0,0.5],[1,0.5]];portConstraint=eastwest;whiteSpace=wrap;" vertex="1" parent="QmorPVJmmJFfb_BFFMC7-9">
          <mxGeometry y="29" width="470" height="34" as="geometry" />
        </mxCell>
        <mxCell id="QmorPVJmmJFfb_BFFMC7-11" value="method:&amp;nbsp; Validate_turing_machine(code,selected_turing_machine_id)" style="text;html=1;strokeColor=none;fillColor=none;align=left;verticalAlign=middle;spacingLeft=4;spacingRight=4;overflow=hidden;rotatable=0;points=[[0,0.5],[1,0.5]];portConstraint=eastwest;whiteSpace=wrap;" vertex="1" parent="QmorPVJmmJFfb_BFFMC7-9">
          <mxGeometry y="63" width="470" height="25" as="geometry" />
        </mxCell>
        <mxCell id="QmorPVJmmJFfb_BFFMC7-12" value="method:&amp;nbsp; &amp;nbsp; extract_all_turing_machines()" style="text;html=1;align=left;verticalAlign=middle;whiteSpace=wrap;rounded=0;" vertex="1" parent="QmorPVJmmJFfb_BFFMC7-9">
          <mxGeometry y="88" width="470" height="30" as="geometry" />
        </mxCell>
        <mxCell id="QmorPVJmmJFfb_BFFMC7-13" value="TuringMachineParser" style="swimlane;fontStyle=1;align=center;verticalAlign=top;childLayout=stackLayout;horizontal=1;startSize=26;horizontalStack=0;resizeParent=1;resizeParentMax=0;resizeLast=0;collapsible=1;marginBottom=0;whiteSpace=wrap;html=1;" vertex="1" parent="1">
          <mxGeometry x="50" y="920" width="160" height="60" as="geometry" />
        </mxCell>
        <mxCell id="QmorPVJmmJFfb_BFFMC7-15" value="" style="line;strokeWidth=1;fillColor=none;align=left;verticalAlign=middle;spacingTop=-1;spacingLeft=3;spacingRight=3;rotatable=0;labelPosition=right;points=[];portConstraint=eastwest;strokeColor=inherit;" vertex="1" parent="QmorPVJmmJFfb_BFFMC7-13">
          <mxGeometry y="26" width="160" height="8" as="geometry" />
        </mxCell>
        <mxCell id="QmorPVJmmJFfb_BFFMC7-16" value="+ Parse(code)" style="text;strokeColor=none;fillColor=none;align=left;verticalAlign=top;spacingLeft=4;spacingRight=4;overflow=hidden;rotatable=0;points=[[0,0.5],[1,0.5]];portConstraint=eastwest;whiteSpace=wrap;html=1;" vertex="1" parent="QmorPVJmmJFfb_BFFMC7-13">
          <mxGeometry y="34" width="160" height="26" as="geometry" />
        </mxCell>
        <mxCell id="QmorPVJmmJFfb_BFFMC7-18" value="Turing_machine" style="swimlane;fontStyle=1;align=center;verticalAlign=middle;childLayout=stackLayout;horizontal=1;startSize=29;horizontalStack=0;resizeParent=1;resizeParentMax=0;resizeLast=0;collapsible=0;marginBottom=0;html=1;whiteSpace=wrap;" vertex="1" parent="1">
          <mxGeometry x="380" y="920" width="470" height="93" as="geometry" />
        </mxCell>
        <mxCell id="QmorPVJmmJFfb_BFFMC7-19" value="-field:&amp;nbsp; &amp;nbsp; name, description , words in lanuage , words not in lanuage, totals tests, ID" style="text;html=1;strokeColor=none;fillColor=none;align=left;verticalAlign=middle;spacingLeft=4;spacingRight=4;overflow=hidden;rotatable=0;points=[[0,0.5],[1,0.5]];portConstraint=eastwest;whiteSpace=wrap;" vertex="1" parent="QmorPVJmmJFfb_BFFMC7-18">
          <mxGeometry y="29" width="470" height="34" as="geometry" />
        </mxCell>
        <mxCell id="QmorPVJmmJFfb_BFFMC7-21" value="method:&amp;nbsp; getters()" style="text;html=1;align=left;verticalAlign=middle;whiteSpace=wrap;rounded=0;" vertex="1" parent="QmorPVJmmJFfb_BFFMC7-18">
          <mxGeometry y="63" width="470" height="30" as="geometry" />
        </mxCell>
      </root>
    </mxGraphModel>
  </diagram>
</mxfile>
